<svg xmlns="http://www.w3.org/2000/svg" width="512px" height="512px" viewBox="0 0 512 512" style="overflow: visible;" data-bbox="113.76412878513997 108.86373747754273 282.63783805560354 282.63783805560354"><path transform="matrix(2.826378345489502, 0, 0, 2.826378345489502, 113.76412963867188, 108.86373901367188)" data-type="circle" data-cx="50" data-cy="50" data-r="50" d="M50 50m-50 0a50 50 0 1 0 100 0a50 50 0 1 0 -100 0" fill="#7eb1c1" data-uid="o-e4ee1197803e47c6ab63583cf684b27c"></path><path text="yanan" fill="#ffffff" space="preserve" text-anchor="middle" offset="0.5" font-scale="contain" font-size="48" font-family="Reenie Beanie" transform="matrix(2.450775623321533, 0, 0, 1.8126506805419922, 254.7889404296875, 269.6601257324219)" data-fl-textpath="" font-weight="400" font-style="normal" data-uid="o-369f22744ac3477aa2223bee75792d32" d="M-35.088-22.464L-35.088-22.464Q-35.712-19.152 -36.24-16.08L-36.24-16.08Q-36.48-14.784 -36.72-13.368Q-36.96-11.952 -37.176-10.584Q-37.392-9.216 -37.56-7.992Q-37.728-6.768 -37.824-5.76L-37.824-5.76Q-38.016-4.224 -38.112-2.256Q-38.208-0.288 -38.304 1.488L-38.304 1.488Q-38.4 3.552 -38.4 5.664L-38.4 5.664Q-38.4 6.096 -38.496 6.624Q-38.592 7.152 -38.592 7.68L-38.592 7.68Q-38.592 8.16 -38.808 8.496Q-39.024 8.832 -39.456 8.832L-39.456 8.832Q-39.84 8.832 -40.056 8.232Q-40.272 7.632 -40.416 6.84Q-40.56 6.048 -40.608 5.256Q-40.656 4.464 -40.656 4.128L-40.656 4.128Q-40.656 3.744 -40.656 3.192Q-40.656 2.64 -40.584 1.56Q-40.512 0.48 -40.368-1.272Q-40.224-3.024 -39.936-5.856L-39.936-5.856Q-39.936-5.904 -40.584-6.336Q-41.232-6.768 -42.168-7.416Q-43.104-8.064 -44.088-8.832Q-45.072-9.6 -45.744-10.32L-45.744-10.32Q-45.84-10.416 -46.032-10.752Q-46.224-11.088 -46.224-11.568L-46.224-11.568Q-46.224-11.808 -45.984-12.072Q-45.744-12.336 -45.456-12.336L-45.456-12.336Q-45.264-12.336 -45.072-12.144L-45.072-12.144Q-43.968-11.184 -42.528-10.008Q-41.088-8.832 -39.696-7.872L-39.696-7.872Q-39.6-8.736 -39.288-10.512Q-38.976-12.288 -38.64-14.328Q-38.304-16.368 -37.992-18.288Q-37.68-20.208 -37.536-21.36L-37.536-21.36Q-37.536-21.552 -37.44-21.984Q-37.344-22.416 -37.152-22.848Q-36.96-23.28 -36.72-23.592Q-36.48-23.904 -36.192-23.904L-36.192-23.904Q-36.048-23.904 -35.568-23.64Q-35.088-23.376 -35.088-22.464ZM-8.784-9.984L-8.784-9.984Q-8.784-9.12 -9.576-7.848Q-10.368-6.576 -11.712-5.376Q-13.056-4.176 -14.832-3.336Q-16.608-2.496 -18.528-2.496L-18.528-2.496Q-19.392-2.496 -20.352-2.784Q-21.312-3.072 -22.224-3.624Q-23.136-4.176 -23.856-4.968Q-24.576-5.76 -24.912-6.768L-24.912-6.768Q-25.2-6.48 -25.608-5.808Q-26.016-5.136 -26.496-4.44Q-26.976-3.744 -27.552-3.24Q-28.128-2.736 -28.752-2.736L-28.752-2.736Q-29.376-2.736 -29.784-3.384Q-30.192-4.032 -30.432-4.824Q-30.672-5.616 -30.768-6.336Q-30.864-7.056 -30.864-7.152L-30.864-7.152Q-30.864-7.728 -30.528-9.336Q-30.192-10.944 -29.52-12.672Q-28.848-14.4 -27.816-15.744Q-26.784-17.088 -25.392-17.088L-25.392-17.088Q-24.864-17.088 -24.696-16.632Q-24.528-16.176 -24.528-15.744L-24.528-15.744L-24.528-14.304Q-24.288-14.112 -24.024-14.04Q-23.76-13.968 -23.544-13.848Q-23.328-13.728 -23.208-13.488Q-23.088-13.248 -23.088-12.72L-23.088-12.72Q-23.088-12.384 -23.136-12.12Q-23.184-11.856 -23.184-11.616L-23.184-11.616Q-23.184-10.368 -22.992-9.168Q-22.8-7.968 -22.224-7.032Q-21.648-6.096 -20.64-5.496Q-19.632-4.896 -17.952-4.896L-17.952-4.896Q-15.84-4.896 -14.376-5.784Q-12.912-6.672 -11.928-7.752Q-10.944-8.832 -10.368-9.72Q-9.792-10.608 -9.408-10.608L-9.408-10.608Q-8.784-10.608 -8.784-9.984ZM-25.632-12.096L-25.632-12.096Q-25.632-12.288 -25.728-12.456Q-25.824-12.624 -25.824-12.768L-25.824-12.768Q-25.824-12.96 -25.728-13.104Q-25.632-13.248 -25.632-13.488L-25.632-13.488Q-25.632-13.632 -25.728-13.704Q-25.824-13.776 -25.824-13.872L-25.824-13.872Q-26.256-13.776 -26.712-13.056Q-27.168-12.336 -27.576-11.376Q-27.984-10.416 -28.224-9.432Q-28.464-8.448 -28.464-7.824L-28.464-7.824Q-28.464-7.488 -28.272-6.72Q-28.08-5.952 -27.84-5.712L-27.84-5.712Q-27.024-7.392 -26.328-8.976Q-25.632-10.56 -25.632-12.096ZM 6.192-5.904L 6.192-5.904Q 6.192-5.616  6-5.328Q 5.808-5.04  5.544-4.8Q 5.28-4.56  4.968-4.392Q 4.656-4.224  4.416-4.224L 4.416-4.224Q 3.6-4.224  2.328-4.584Q 1.056-4.944  0.288-5.712L 0.288-5.712Q-0.528-6.528 -1.152-7.656Q-1.776-8.784 -2.544-10.992L-2.544-10.992Q-3.072-8.88 -3.768-6.816Q-4.464-4.752 -6-3.024L-6-3.024Q-6.096-2.928 -6.288-2.928L-6.288-2.928Q-6.624-2.928 -7.008-3.264Q-7.392-3.6 -7.392-3.936L-7.392-3.936Q-7.392-4.272 -7.464-5.496Q-7.536-6.72 -7.632-8.232Q-7.728-9.744 -7.8-11.304Q-7.872-12.864 -7.872-13.872L-7.872-13.872Q-7.872-14.352 -7.824-15.144Q-7.776-15.936 -7.536-16.512L-7.536-16.512Q-7.488-16.608 -7.176-16.896Q-6.864-17.184 -6.48-17.184L-6.48-17.184Q-6.144-17.184 -6.096-16.752Q-6.048-16.32 -6.048-15.792L-6.048-15.792L-6.048-8.208Q-6.048-7.968 -5.976-7.536Q-5.904-7.104 -5.76-6.912L-5.76-6.912Q-5.232-8.064 -4.776-9.624Q-4.32-11.184 -3.888-12.6Q-3.456-14.016 -3.024-15Q-2.592-15.984 -2.16-15.984L-2.16-15.984Q-1.68-15.984 -1.392-15.792Q-1.104-15.6 -0.912-15.024L-0.912-15.024Q-0.672-13.632 -0.528-12.552Q-0.384-11.472 -0.168-10.608Q 0.048-9.744  0.456-9Q 0.864-8.256  1.584-7.632L 1.584-7.632Q 2.256-7.008  3.096-6.72Q 3.936-6.432  4.56-6.432L 4.56-6.432Q 4.848-6.432  5.184-6.552Q 5.52-6.672  5.664-6.672L 5.664-6.672Q 5.856-6.672  6.024-6.336Q 6.192-6  6.192-5.904ZM 31.488-9.984L 31.488-9.984Q 31.488-9.12  30.696-7.848Q 29.904-6.576  28.56-5.376Q 27.216-4.176  25.44-3.336Q 23.664-2.496  21.744-2.496L 21.744-2.496Q 20.88-2.496  19.92-2.784Q 18.96-3.072  18.048-3.624Q 17.136-4.176  16.416-4.968Q 15.696-5.76  15.36-6.768L 15.36-6.768Q 15.072-6.48  14.664-5.808Q 14.256-5.136  13.776-4.44Q 13.296-3.744  12.72-3.24Q 12.144-2.736  11.52-2.736L 11.52-2.736Q 10.896-2.736  10.488-3.384Q 10.08-4.032  9.84-4.824Q 9.6-5.616  9.504-6.336Q 9.408-7.056  9.408-7.152L 9.408-7.152Q 9.408-7.728  9.744-9.336Q 10.08-10.944  10.752-12.672Q 11.424-14.4  12.456-15.744Q 13.488-17.088  14.88-17.088L 14.88-17.088Q 15.408-17.088  15.576-16.632Q 15.744-16.176  15.744-15.744L 15.744-15.744L 15.744-14.304Q 15.984-14.112  16.248-14.04Q 16.512-13.968  16.728-13.848Q 16.944-13.728  17.064-13.488Q 17.184-13.248  17.184-12.72L 17.184-12.72Q 17.184-12.384  17.136-12.12Q 17.088-11.856  17.088-11.616L 17.088-11.616Q 17.088-10.368  17.28-9.168Q 17.472-7.968  18.048-7.032Q 18.624-6.096  19.632-5.496Q 20.64-4.896  22.32-4.896L 22.32-4.896Q 24.432-4.896  25.896-5.784Q 27.36-6.672  28.344-7.752Q 29.328-8.832  29.904-9.72Q 30.48-10.608  30.864-10.608L 30.864-10.608Q 31.488-10.608  31.488-9.984ZM 14.64-12.096L 14.64-12.096Q 14.64-12.288  14.544-12.456Q 14.448-12.624  14.448-12.768L 14.448-12.768Q 14.448-12.96  14.544-13.104Q 14.64-13.248  14.64-13.488L 14.64-13.488Q 14.64-13.632  14.544-13.704Q 14.448-13.776  14.448-13.872L 14.448-13.872Q 14.016-13.776  13.56-13.056Q 13.104-12.336  12.696-11.376Q 12.288-10.416  12.048-9.432Q 11.808-8.448  11.808-7.824L 11.808-7.824Q 11.808-7.488  12-6.72Q 12.192-5.952  12.432-5.712L 12.432-5.712Q 13.248-7.392  13.944-8.976Q 14.64-10.56  14.64-12.096ZM 46.464-5.904L 46.464-5.904Q 46.464-5.616  46.272-5.328Q 46.08-5.04  45.816-4.8Q 45.552-4.56  45.24-4.392Q 44.928-4.224  44.688-4.224L 44.688-4.224Q 43.872-4.224  42.6-4.584Q 41.328-4.944  40.56-5.712L 40.56-5.712Q 39.744-6.528  39.12-7.656Q 38.496-8.784  37.728-10.992L 37.728-10.992Q 37.2-8.88  36.504-6.816Q 35.808-4.752  34.272-3.024L 34.272-3.024Q 34.176-2.928  33.984-2.928L 33.984-2.928Q 33.648-2.928  33.264-3.264Q 32.88-3.6  32.88-3.936L 32.88-3.936Q 32.88-4.272  32.808-5.496Q 32.736-6.72  32.64-8.232Q 32.544-9.744  32.472-11.304Q 32.4-12.864  32.4-13.872L 32.4-13.872Q 32.4-14.352  32.448-15.144Q 32.496-15.936  32.736-16.512L 32.736-16.512Q 32.784-16.608  33.096-16.896Q 33.408-17.184  33.792-17.184L 33.792-17.184Q 34.128-17.184  34.176-16.752Q 34.224-16.32  34.224-15.792L 34.224-15.792L 34.224-8.208Q 34.224-7.968  34.296-7.536Q 34.368-7.104  34.512-6.912L 34.512-6.912Q 35.04-8.064  35.496-9.624Q 35.952-11.184  36.384-12.6Q 36.816-14.016  37.248-15Q 37.68-15.984  38.112-15.984L 38.112-15.984Q 38.592-15.984  38.88-15.792Q 39.168-15.6  39.36-15.024L 39.36-15.024Q 39.6-13.632  39.744-12.552Q 39.888-11.472  40.104-10.608Q 40.32-9.744  40.728-9Q 41.136-8.256  41.856-7.632L 41.856-7.632Q 42.528-7.008  43.368-6.72Q 44.208-6.432  44.832-6.432L 44.832-6.432Q 45.12-6.432  45.456-6.552Q 45.792-6.672  45.936-6.672L 45.936-6.672Q 46.128-6.672  46.296-6.336Q 46.464-6  46.464-5.904Z"></path></svg>